<?xml version="1.0" encoding="utf-8"?>
<!-- Generator: Adobe Illustrator 21.0.0, SVG Export Plug-In . SVG Version: 6.00 Build 0)  -->
<svg class="discover-profile-3" version="1.1" id="Layer_1" xmlns="http://www.w3.org/2000/svg" xmlns:xlink="http://www.w3.org/1999/xlink" x="0px" y="0px"
	 viewBox="0 0 32 32" style="enable-background:new 0 0 32 32;" xml:space="preserve">
<style type="text/css">
	.discover-profile-3 .st0{opacity:0.4;clip-path:url(#SVGID_2_);}
	.discover-profile-3 .st1{fill:#252424;}
</style>
<g>
	<g>
		<defs>

				<ellipse id="SVGID_1_" transform="matrix(0.9995 -3.016702e-02 3.016702e-02 0.9995 -0.4754 0.49)" cx="16" cy="16" rx="16" ry="16"/>
		</defs>
		<use xlink:href="#SVGID_1_"  style="overflow:visible;opacity:0.2;fill:#252424;"/>
		<clipPath id="SVGID_2_">
			<use xlink:href="#SVGID_1_"  style="overflow:visible;opacity:0.2;"/>
		</clipPath>
		<g class="st0">
			<g>
				<path class="st1" d="M32.9,51.5l-31.8,1L0.7,38.5C0.5,31.6,6,25.7,13,25.5l7.3-0.2c6.6-0.2,12,5,12.2,11.5L32.9,51.5z"/>

					<ellipse id="XMLID_264_" transform="matrix(1.006731e-02 -0.9999 0.9999 1.006731e-02 -8.168 26.0249)" class="st1" cx="9.1" cy="17.1" rx="1.2" ry="1.2"/>

					<ellipse id="XMLID_263_" transform="matrix(1.006737e-02 -0.9999 0.9999 1.006737e-02 3.2188 38.9869)" class="st1" cx="21.3" cy="17.9" rx="6.4" ry="6"/>

					<ellipse id="XMLID_262_" transform="matrix(1.006731e-02 -0.9999 0.9999 1.006731e-02 -6.5603 30.1973)" class="st1" cx="12" cy="18.4" rx="5.6" ry="5.6"/>

					<ellipse id="XMLID_261_" transform="matrix(1.006731e-02 -0.9999 0.9999 1.006731e-02 3.5657 28.4676)" class="st1" cx="16.2" cy="12.4" rx="9.2" ry="9.2"/>
				<g id="XMLID_259_">
					<path id="XMLID_260_" class="st1" d="M16.2,28.7L16.2,28.7c-1.7,0-3-0.9-3-2.7l0-4.2l6.3,0l0,4.1
						C19.5,27.7,17.9,28.7,16.2,28.7z"/>
				</g>
				<path class="st1" d="M17.6,29.8l-2.7,0.1c-1.6,0-2.9-1.2-3-2.8l-0.1-3.8c0-0.7,0.5-1.2,1.2-1.2l6.1-0.2c0.7,0,1.2,0.5,1.2,1.2
					l0.1,3.8C20.5,28.4,19.2,29.7,17.6,29.8z"/>

					<ellipse id="XMLID_258_" transform="matrix(1.006731e-02 -0.9999 0.9999 1.006731e-02 -6.3309 37.8547)" class="st1" cx="16" cy="22.1" rx="2.4" ry="2.4"/>

					<ellipse id="XMLID_257_" transform="matrix(1.006731e-02 -0.9999 0.9999 1.006731e-02 0.1442 31.7866)" class="st1" cx="16.1" cy="15.8" rx="7.7" ry="6.3"/>
				<g>
					<g>
						<rect x="20.5" y="12.7" transform="matrix(0.95 -0.3124 0.3124 0.95 -2.9552 7.5424)" class="st1" width="3.1" height="0.7"/>
					</g>
					<g>

							<rect x="10.1" y="11.3" transform="matrix(0.3351 -0.9422 0.9422 0.3351 -5.0725 18.3122)" class="st1" width="0.7" height="2.9"/>
					</g>
				</g>
				<g id="XMLID_252_">
					<g id="XMLID_255_">
						<path id="XMLID_256_" class="st1" d="M23.7,14.7c-0.6,1.3-1.5,2.1-2.1,1.9C21,16.5,21,15.3,21.6,14c0.6-1.3,1.5-2.1,2.1-1.9
							S24.3,13.5,23.7,14.7z"/>
					</g>
					<g id="XMLID_253_">
						<path id="XMLID_254_" class="st1" d="M8.5,14.6c0.5,1.3,1.5,2.2,2.1,2s0.7-1.4,0.1-2.7s-1.5-2.2-2.1-2
							C8.1,12.1,8,13.3,8.5,14.6z"/>
					</g>
				</g>
				<g id="XMLID_249_">

						<ellipse id="XMLID_251_" transform="matrix(1.006731e-02 -0.9999 0.9999 1.006731e-02 -0.7591 27.5541)" class="st1" cx="13.5" cy="14.2" rx="0.7" ry="0.7"/>

						<ellipse id="XMLID_250_" transform="matrix(1.006731e-02 -0.9999 0.9999 1.006731e-02 4.4209 32.8726)" class="st1" cx="18.8" cy="14.2" rx="0.7" ry="0.7"/>
				</g>

					<ellipse id="XMLID_248_" transform="matrix(1.006731e-02 -0.9999 0.9999 1.006731e-02 -2.2446 29.7775)" class="st1" cx="13.9" cy="16" rx="0.3" ry="0.3"/>

					<ellipse id="XMLID_247_" transform="matrix(1.006731e-02 -0.9999 0.9999 1.006731e-02 -0.9822 30.089)" class="st1" cx="14.7" cy="15.5" rx="0.3" ry="0.3"/>

					<ellipse id="XMLID_246_" transform="matrix(1.006731e-02 -0.9999 0.9999 1.006731e-02 -2.0703 31.1447)" class="st1" cx="14.7" cy="16.6" rx="0.3" ry="0.3"/>

					<ellipse id="XMLID_245_" transform="matrix(1.006731e-02 -0.9999 0.9999 1.006731e-02 -3.0936 27.9128)" class="st1" cx="12.6" cy="15.5" rx="0.3" ry="0.3"/>

					<ellipse id="XMLID_244_" transform="matrix(1.006731e-02 -0.9999 0.9999 1.006731e-02 -3.7018 29.4631)" class="st1" cx="13" cy="16.6" rx="0.3" ry="0.3"/>

					<ellipse id="XMLID_243_" transform="matrix(1.006731e-02 -0.9999 0.9999 1.006731e-02 -4.9465 27.9823)" class="st1" cx="11.7" cy="16.5" rx="0.3" ry="0.3"/>

					<ellipse id="XMLID_242_" transform="matrix(1.006731e-02 -0.9999 0.9999 1.006731e-02 1.609 32.7597)" class="st1" cx="17.4" cy="15.6" rx="0.3" ry="0.3"/>

					<ellipse id="XMLID_241_" transform="matrix(1.006731e-02 -0.9999 0.9999 1.006731e-02 1.1928 34.5078)" class="st1" cx="18" cy="16.7" rx="0.3" ry="0.3"/>

					<ellipse id="XMLID_240_" transform="matrix(1.006731e-02 -0.9999 0.9999 1.006731e-02 2.8538 34.2405)" class="st1" cx="18.7" cy="15.7" rx="0.3" ry="0.3"/>

					<ellipse id="XMLID_239_" transform="matrix(1.006731e-02 -0.9999 0.9999 1.006731e-02 4.1944 35.8202)" class="st1" cx="20.2" cy="15.8" rx="0.3" ry="0.3"/>

					<ellipse id="XMLID_238_" transform="matrix(1.006731e-02 -0.9999 0.9999 1.006731e-02 3.031 35.4128)" class="st1" cx="19.4" cy="16.2" rx="0.3" ry="0.3"/>

					<ellipse id="XMLID_237_" transform="matrix(1.006731e-02 -0.9999 0.9999 1.006731e-02 3.6851 37.2745)" class="st1" cx="20.7" cy="16.8" rx="0.3" ry="0.3"/>

					<ellipse id="XMLID_236_" transform="matrix(1.006731e-02 -0.9999 0.9999 1.006731e-02 1.8528 35.9798)" class="st1" cx="19.1" cy="17.1" rx="0.3" ry="0.3"/>

					<ellipse id="XMLID_235_" transform="matrix(1.006731e-02 -0.9999 0.9999 1.006731e-02 7.5147 24.4851)" class="st1" cx="16.1" cy="8.4" rx="1.9" ry="1.9"/>

					<ellipse id="XMLID_234_" transform="matrix(1.006731e-02 -0.9999 0.9999 1.006731e-02 4.1833 21.7105)" class="st1" cx="13.1" cy="8.7" rx="1.9" ry="1.9"/>

					<ellipse id="XMLID_233_" transform="matrix(1.006731e-02 -0.9999 0.9999 1.006731e-02 10.0923 28.3547)" class="st1" cx="19.4" cy="9.1" rx="1.9" ry="1.9"/>

					<ellipse id="XMLID_232_" transform="matrix(1.006731e-02 -0.9999 0.9999 1.006731e-02 10.7965 32.8534)" class="st1" cx="22" cy="11" rx="1.9" ry="1.9"/>
				<path class="st1" d="M16.9,17.4L16.9,17.4c-0.1,0-0.2-0.1-0.2-0.2l0-1.8c0-0.3-0.3-0.6-0.6-0.6h0c-0.3,0-0.6,0.3-0.6,0.6l0,1.8
					c0,0.1-0.1,0.2-0.2,0.2h0c-0.2,0-0.4,0.2-0.5,0.4l0,0c0,0.2,0.1,0.3,0.3,0.3l0.3,0c0.1,0,0.2,0.1,0.2,0.2
					c0.1,0.2,0.2,0.3,0.4,0.3c0.2,0,0.4-0.1,0.4-0.3c0-0.1,0.1-0.1,0.2-0.1l0.3,0c0.2,0,0.3-0.1,0.3-0.3l0,0
					C17.3,17.6,17.1,17.4,16.9,17.4z"/>
				<path class="st1" d="M19.3,12l-1-0.1c-0.2,0-0.3-0.2-0.3-0.4v0c0-0.2,0.2-0.3,0.4-0.3l1,0.1c0.2,0,0.3,0.2,0.3,0.4l0,0
					C19.6,11.9,19.5,12,19.3,12z"/>
				<path class="st1" d="M14.4,11.6l-1-0.1c-0.2,0-0.3-0.2-0.3-0.4l0,0c0-0.2,0.2-0.3,0.4-0.3l1,0.1c0.2,0,0.3,0.2,0.3,0.4h0
					C14.7,11.5,14.6,11.6,14.4,11.6z"/>
				<path class="st1" d="M17.6,20.3c-0.2,0.2-0.4,0.5-0.7,0.6c-0.6,0.3-1.3,0.2-1.9-0.1"/>
				<g>
					<path class="st1" d="M14.8,15.5c0,0-0.1,0-0.1,0l-2.6,0c-0.2,0-0.3-0.1-0.4-0.2c-0.1-0.1-0.2-0.3-0.2-0.4l0-1.5
						c0-0.3,0.3-0.6,0.6-0.6l2.6,0c0.2,0,0.3,0.1,0.4,0.2c0.1,0.1,0.2,0.3,0.2,0.4l0,1.5c0,0.2-0.1,0.3-0.2,0.4
						C15,15.4,14.9,15.5,14.8,15.5z M12.1,13.3c-0.1,0-0.1,0.1-0.1,0.1l0,1.5c0,0,0,0.1,0,0.1s0,0,0.1,0l2.6,0c0,0,0.1,0,0.1,0
						c0,0,0,0,0-0.1l0-1.5c0,0,0-0.1,0-0.1c0,0,0,0-0.1,0L12.1,13.3C12.1,13.3,12.1,13.3,12.1,13.3z"/>
				</g>
				<g>
					<path class="st1" d="M20.3,15.6c0,0-0.1,0-0.1,0l0,0l-2.7,0c-0.4,0-0.6-0.3-0.6-0.6l0-1.4c0-0.2,0.1-0.3,0.2-0.5
						c0.1-0.1,0.3-0.2,0.4-0.2l2.7,0c0.4,0,0.6,0.3,0.6,0.6l0,1.4C20.8,15.3,20.6,15.5,20.3,15.6z M20.2,15.1c0.1,0,0.1-0.1,0.1-0.1
						l0-1.4c0-0.1-0.1-0.1-0.1-0.1l-2.7,0c-0.1,0-0.1,0.1-0.1,0.1l0,1.4c0,0.1,0.1,0.1,0.1,0.1L20.2,15.1z"/>
				</g>
				<g>

						<rect x="15" y="13.7" transform="matrix(1 -6.240880e-03 6.240880e-03 1 -8.726965e-02 9.983476e-02)" class="st1" width="2" height="0.7"/>
				</g>
			</g>
		</g>
	</g>
</g>
</svg>
