<?xml version="1.0" encoding="utf-8"?>
<!-- Generator: Adobe Illustrator 21.0.0, SVG Export Plug-In . SVG Version: 6.00 Build 0)  -->
<svg class="discover-profile-1" version="1.1" id="Layer_1" xmlns="http://www.w3.org/2000/svg" xmlns:xlink="http://www.w3.org/1999/xlink" x="0px" y="0px"
	 viewBox="0 0 32 32" style="enable-background:new 0 0 32 32;" xml:space="preserve">
<style type="text/css">
	.discover-profile-1 .st0{opacity:0.4;clip-path:url(#SVGID_2_);}
	.discover-profile-1 .st1{fill:#252424;}
</style>
<g>
	<g>
		<defs>

				<ellipse id="SVGID_1_" transform="matrix(0.9999 -1.207678e-02 1.207678e-02 0.9999 -0.1921 0.1944)" cx="16" cy="16" rx="16" ry="16"/>
		</defs>
		<use xlink:href="#SVGID_1_"  style="overflow:visible;opacity:0.2;fill:#252424;"/>
		<clipPath id="SVGID_2_">
			<use xlink:href="#SVGID_1_"  style="overflow:visible;opacity:0.2;"/>
		</clipPath>
		<g class="st0">

				<rect x="1.4" y="25.6" transform="matrix(0.9999 -1.207678e-02 1.207678e-02 0.9999 -0.5009 0.1871)" class="st1" width="27.6" height="32"/>
			<path class="st1" d="M15.8,38.3L15.8,38.3c-2.5,0-4.6-2-4.7-4.5l-0.2-16.6c0-2.5,2-4.6,4.5-4.7h0c2.5,0,4.6,2,4.7,4.5l0.2,16.6
				C20.4,36.2,18.3,38.3,15.8,38.3z"/>
			<g>
				<path class="st1" d="M15.6,21.1L15.6,21.1c-1.2,0-2.2-1-2.2-2.1v0c0-1.2,1-2.2,2.1-2.2h0c1.2,0,2.2,1,2.2,2.1v0
					C17.7,20.1,16.8,21.1,15.6,21.1z"/>
				<path class="st1" d="M21.5,14.4c0,3.3-2.6,5.9-6,6l0,0c-3.3,0-6.1-2.6-6.1-5.8L9.3,9.3c0-3.3,2.6-5.9,6-6l0,0
					c3.3,0,6.1,2.6,6.1,5.8L21.5,14.4z"/>
			</g>
			<g id="XMLID_408_">
				<circle id="XMLID_410_" class="st1" cx="13.4" cy="11.3" r="0.6"/>
				<circle id="XMLID_409_" class="st1" cx="17.6" cy="11.3" r="0.6"/>
			</g>

				<ellipse transform="matrix(0.9999 -1.207678e-02 1.207678e-02 0.9999 -0.1167 0.2598)" class="st1" cx="21.5" cy="9.8" rx="1.4" ry="1.4"/>

				<ellipse transform="matrix(0.9999 -1.207678e-02 1.207678e-02 0.9999 -0.1193 0.1136)" class="st1" cx="9.3" cy="9.9" rx="1.4" ry="1.4"/>
			<path class="st1" d="M18.4,9.4c-0.2-0.2-0.5-0.3-0.9-0.3s-0.7,0.1-0.9,0.3"/>
			<path class="st1" d="M14.3,9.5c-0.2-0.2-0.5-0.3-0.9-0.3c-0.4,0-0.7,0.1-0.9,0.3"/>
			<g>
				<ellipse transform="matrix(0.9477 -0.3193 0.3193 0.9477 -3.4408 3.4547)" class="st1" cx="8.8" cy="12.2" rx="1.3" ry="2"/>
				<ellipse transform="matrix(0.2963 -0.9551 0.9551 0.2963 3.9893 29.5382)" class="st1" cx="22" cy="12.1" rx="2" ry="1.3"/>
			</g>
			<path class="st1" d="M22.1,13c0-0.4-0.4-0.7-0.8-0.7c-0.4,0-0.7,0.4-0.7,0.7l-0.1,1.8c0,0.5-0.3,0.9-0.7,1.2
				c-0.5,0.3-1.1,0.2-1.4-0.3c-0.5-0.7-1.2-1-2.1-1l-1.7,0c-0.8,0-1.6,0.4-2,1.1c-0.3,0.4-0.9,0.6-1.3,0.3c-0.4-0.2-0.7-0.7-0.8-1.2
				l-0.1-1.8c0-0.4-0.3-0.7-0.7-0.7c-0.4,0-0.8,0.3-0.8,0.7l-0.1,2.9c-0.1,1.6,0.6,3.1,1.7,4.2l0,0c1.1,1,2.5,1.6,4,1.6l2.2,0
				c1.5,0,2.9-0.6,4-1.7l0,0c1.1-1.1,1.7-2.7,1.6-4.2L22.1,13z"/>
			<path class="st1" d="M16.7,16.8c-0.2,0.3-0.7,0.6-1.2,0.6c-0.5,0-0.9-0.2-1.2-0.5"/>
			<path class="st1" d="M16.7,13.8L16.7,13.8c-0.2,0-0.4-0.2-0.4-0.4l0-1.1c0-0.4-0.2-0.7-0.6-0.8c-0.5-0.1-1.1,0.3-1.1,0.8l0,1.2
				c0,0.2-0.2,0.4-0.4,0.4l0,0c-0.2,0-0.4,0.1-0.4,0.3c-0.1,0.3,0.1,0.5,0.4,0.5l0.2,0c0.1,0,0.2,0.1,0.2,0.2l0,0
				c0,0.3,0.2,0.7,0.5,0.8c0.6,0.2,1.1-0.2,1.1-0.8l0-0.1c0-0.1,0.1-0.2,0.2-0.2l0.3,0c0.3,0,0.5-0.3,0.4-0.5
				C17.1,13.9,16.9,13.8,16.7,13.8z"/>
			<g>
				<g>

						<ellipse transform="matrix(0.8118 -0.5839 0.5839 0.8118 -12.0112 22.5058)" class="st1" cx="28.9" cy="29.9" rx="4.5" ry="4.5"/>
					<polygon class="st1" points="32.5,27.3 43.3,43.5 37.2,47.8 25.3,32.5 					"/>
				</g>
				<path class="st1" d="M39.6,41.5l-0.8,0l-0.2,0.7l0.3,0.1l0.1-0.3l0.1,0.2c0.1,0.2,0.1,0.3,0,0.5c-0.1,0.1-0.2,0.2-0.4,0.2
					c-0.1,0-0.2-0.1-0.3-0.2l-1-1.2l0.8-0.6l-0.2-0.2l-0.8,0.6L37,40.7c0.2-0.2,0.2-0.5,0-0.7c-0.2-0.3-0.6-0.3-0.8-0.1
					c-0.3,0.2-0.3,0.6-0.1,0.8c0.2,0.2,0.5,0.3,0.7,0.2l0.5,0.6l-0.8,0.6l0.2,0.2l0.8-0.6l1,1.2c0.1,0.1,0.1,0.2,0.1,0.3
					c0,0.2-0.2,0.3-0.3,0.3c-0.1,0-0.3,0-0.4-0.1l-0.1-0.2l0.3,0l0-0.4l-0.8,0l-0.2,0.7l0.3,0.1l0.1-0.3l0.1,0.2
					c0.2,0.2,0.5,0.3,0.7,0.3c0.1,0,0.2-0.1,0.3-0.1c0.1-0.1,0.2-0.3,0.3-0.5c0,0,0-0.1,0-0.1c0,0,0.1,0,0.1,0c0.2,0,0.4,0,0.5-0.1
					c0.1-0.1,0.1-0.1,0.2-0.2c0.1-0.3,0.1-0.6-0.1-0.8l-0.1-0.2l0.3,0L39.6,41.5z M36.2,40.5c-0.1-0.1-0.1-0.3,0.1-0.4
					c0.1-0.1,0.3-0.1,0.4,0.1c0.1,0.1,0.1,0.3-0.1,0.4C36.5,40.6,36.3,40.6,36.2,40.5z"/>
			</g>
			<g>
				<g>

						<ellipse transform="matrix(0.5641 -0.8257 0.8257 0.5641 -24.3922 14.2383)" class="st1" cx="1.3" cy="30.2" rx="4.5" ry="4.5"/>
					<polygon class="st1" points="-2.4,27.7 -12.7,44.2 -6.6,48.3 5,32.7 					"/>
				</g>
			</g>
			<g>

					<ellipse transform="matrix(0.9999 -1.207678e-02 1.207678e-02 0.9999 -0.3655 0.3513)" class="st1" cx="28.9" cy="30.4" rx="5" ry="5"/>
				<polygon class="st1" points="33.1,27.6 39.8,38.2 32.1,43.8 24.2,32.1 				"/>
			</g>
			<g>

					<ellipse transform="matrix(0.9999 -1.207678e-02 1.207678e-02 0.9999 -0.3715 1.912715e-02)" class="st1" cx="1.4" cy="30.8" rx="5" ry="5"/>
				<polygon class="st1" points="-2.8,28.1 -9.3,38.7 -1.5,44.2 6.2,32.4 				"/>
			</g>
			<g>
				<polygon class="st1" points="20.2,23.4 23.6,23.3 20.2,26.7 				"/>
				<polygon class="st1" points="11,23.5 7.6,23.5 11,26.8 				"/>
				<polygon class="st1" points="20.2,26.7 14.5,34.1 14.4,30.1 11,26.8 9.1,26.8 9.3,40.7 21.7,40.6 21.5,26.6 				"/>
			</g>
			<g>

					<ellipse transform="matrix(0.9999 -1.207678e-02 1.207678e-02 0.9999 -0.369 0.157)" class="st1" cx="12.8" cy="30.6" rx="0.5" ry="0.5"/>

					<ellipse transform="matrix(0.9999 -1.207678e-02 1.207678e-02 0.9999 -0.4 0.1575)" class="st1" cx="12.8" cy="33.2" rx="0.5" ry="0.5"/>
			</g>
		</g>
	</g>
</g>
</svg>
