<?xml version="1.0" encoding="utf-8"?>
<!-- Generator: Adobe Illustrator 21.0.0, SVG Export Plug-In . SVG Version: 6.00 Build 0)  -->
<svg class="discover-profile-2" version="1.1" id="Layer_1" xmlns="http://www.w3.org/2000/svg" xmlns:xlink="http://www.w3.org/1999/xlink" x="0px" y="0px"
	 viewBox="0 0 32 32" style="enable-background:new 0 0 32 32;" xml:space="preserve">
<style type="text/css">
	.discover-profile-2 .st0{opacity:0.4;clip-path:url(#SVGID_2_);}
	.discover-profile-2 .st1{fill:#252424;}
</style>
<g>
	<defs>

			<ellipse id="SVGID_1_" transform="matrix(2.171109e-02 -0.9998 0.9998 2.171109e-02 -0.3436 31.6489)" cx="16" cy="16" rx="16" ry="16"/>
	</defs>
	<use xlink:href="#SVGID_1_"  style="overflow:visible;opacity:0.2;fill:#252424;"/>
	<clipPath id="SVGID_2_">
		<use xlink:href="#SVGID_1_"  style="overflow:visible;opacity:0.2;"/>
	</clipPath>
	<g class="st0">
		<path class="st1" d="M15.1,33.5l13.3,0.3l0,0c0.6-2.5,0.4-5.2-0.8-7.5c-1.5-2.9-3.2-7.7-3.1-13.8L6.6,12
			c-0.2,8.6-6.4,12.3-4.3,21.2L15.1,33.5z"/>
		<g>
			<g>
				<g>
					<ellipse transform="matrix(0.9633 -0.2685 0.2685 0.9633 -7.1741 7.4563)" class="st1" cx="23.7" cy="30" rx="3.3" ry="3.3"/>
					<polygon class="st1" points="26.8,29.1 31.1,46.1 25.6,47.5 20.5,30.8 					"/>
				</g>
			</g>
			<g>
				<ellipse transform="matrix(0.9633 -0.2685 0.2685 0.9633 -7.1325 7.4383)" class="st1" cx="23.6" cy="29.8" rx="3.5" ry="3.5"/>
				<polygon class="st1" points="27,28.8 29.3,37.8 22.9,39.6 20.3,30.7 				"/>
			</g>
		</g>
		<g>
			<g>
				<g>

						<ellipse transform="matrix(0.2519 -0.9678 0.9678 0.2519 -23.7258 28.585)" class="st1" cx="6.6" cy="29.6" rx="3.3" ry="3.3"/>
					<polygon class="st1" points="3.5,28.8 -0.5,45.9 5,47.2 9.8,30.4 					"/>
				</g>
			</g>
			<g>

					<ellipse transform="matrix(0.2519 -0.9678 0.9678 0.2519 -23.5375 28.5046)" class="st1" cx="6.7" cy="29.5" rx="3.5" ry="3.5"/>
				<polygon class="st1" points="3.3,28.6 1.2,37.6 7.5,39.2 10,30.3 				"/>
			</g>
		</g>
		<polygon class="st1" points="24.6,26.3 18.2,24.3 12.4,24.1 6.2,25.9 1.8,55.1 27.6,55.6 		"/>

			<ellipse transform="matrix(2.171109e-02 -0.9998 0.9998 2.171109e-02 3.2505 27.34)" class="st1" cx="15.6" cy="12" rx="9" ry="9"/>
		<path class="st1" d="M15.2,31.4L15.2,31.4c-1.5,0-2.8-1.3-2.7-2.9l0.2-7c0-1.5,1.3-2.8,2.9-2.7l0,0c1.5,0,2.8,1.3,2.7,2.9l-0.2,7
			C18,30.2,16.7,31.4,15.2,31.4z"/>

			<ellipse transform="matrix(2.171109e-02 -0.9998 0.9998 2.171109e-02 1.5513 28.932)" class="st1" cx="15.6" cy="13.7" rx="9" ry="6.3"/>

			<ellipse transform="matrix(2.171109e-02 -0.9998 0.9998 2.171109e-02 -6.6085 36.5773)" class="st1" cx="15.4" cy="21.7" rx="1.8" ry="1.8"/>
		<path class="st1" d="M16.1,16.7L16.1,16.7l0-1.4c0-0.3-0.2-0.6-0.6-0.6h0c-0.3,0-0.6,0.2-0.6,0.6l0,1.4l0,0
			c-0.3,0-0.5,0.2-0.5,0.5v0c0,0.2,0.1,0.3,0.3,0.3l0.3,0l0,0.2c0,0.2,0.2,0.4,0.4,0.4h0c0.2,0,0.4-0.2,0.4-0.4l0-0.2l0.3,0
			c0.2,0,0.3-0.1,0.3-0.3l0,0C16.6,16.9,16.3,16.7,16.1,16.7z"/>
		<g id="XMLID_249_">

				<ellipse id="XMLID_251_" transform="matrix(3.335618e-02 -0.9994 0.9994 3.335618e-02 -0.9398 27.0562)" class="st1" cx="13.5" cy="14" rx="0.5" ry="0.5"/>

				<ellipse id="XMLID_250_" transform="matrix(3.335618e-02 -0.9994 0.9994 3.335618e-02 2.8548 31.251)" class="st1" cx="17.6" cy="14.1" rx="0.5" ry="0.5"/>
		</g>
		<path id="XMLID_248_" class="st1" d="M15.4,20.1c-0.6,0-1.1-0.2-1.6-0.6c-0.2-0.2-0.2-0.4-0.1-0.6c0.1-0.2,0.4-0.2,0.6-0.1
			c0.6,0.5,1.5,0.5,2.1,0c0.2-0.1,0.5-0.1,0.6,0.1c0.1,0.2,0.1,0.5-0.1,0.6C16.5,20,16,20.2,15.4,20.1"/>
		<g>
			<path class="st1" d="M12.3,12.6c0.4-0.7,1.3-0.8,2-0.4"/>
			<path class="st1" d="M16.9,12.3c0.7-0.4,1.5-0.2,2,0.4"/>
		</g>
		<g>
			<ellipse transform="matrix(0.4434 -0.8963 0.8963 0.4434 -0.9008 27.6671)" class="st1" cx="21.8" cy="14.6" rx="1.9" ry="1.2"/>
		</g>
		<path class="st1" d="M24,10.3c0.1-0.1,0.2-0.1,0.3-0.2c-1-3.7-4.4-6.5-8.5-6.6c-4.9-0.1-9,3.8-9.1,8.8c0,0.7,0,1.3,0.2,1.9
			c0.3,0.1,0.5,0.1,0.8,0.1c2.1,0,3.8-1.6,3.8-3.7c0-0.1,0-0.3,0-0.4c0.4,0.1,0.8,0.1,1.2,0.1c2,0,3.8-0.9,4.8-2.4
			c0.4,1.4,1.5,2.5,2.8,2.9c-0.2,0.3-0.3,0.7-0.3,1.1c0,1.3,1,2.4,2.4,2.5c1,0,1.8-0.5,2.2-1.4c0-0.1,0-0.3,0-0.4
			c0-0.6,0-1.3-0.2-1.8C24.3,10.6,24.1,10.5,24,10.3z"/>
		<g>
			<ellipse transform="matrix(0.9147 -0.404 0.404 0.9147 -4.9825 4.9596)" class="st1" cx="9.3" cy="14.3" rx="1.2" ry="1.9"/>
		</g>

			<ellipse transform="matrix(2.171109e-02 -0.9998 0.9998 2.171109e-02 -7.1478 25.1832)" class="st1" cx="9.3" cy="16.2" rx="0.8" ry="0.8"/>

			<ellipse transform="matrix(2.171109e-02 -0.9998 0.9998 2.171109e-02 4.6286 37.7529)" class="st1" cx="21.6" cy="16.5" rx="0.8" ry="0.8"/>
	</g>
</g>
</svg>
