<?xml version="1.0" encoding="utf-8"?>
<!-- Generator: Adobe Illustrator 22.1.0, SVG Export Plug-In . SVG Version: 6.00 Build 0)  -->
<svg version="1.1" id="Layer_1" xmlns="http://www.w3.org/2000/svg" xmlns:xlink="http://www.w3.org/1999/xlink" x="0px" y="0px"
	 viewBox="0 0 280 164" style="enable-background:new 0 0 280 164;" xml:space="preserve">
<g>
	<g>
		<g id="XMLID_2_">
			<g>
				<path style="fill:#C3C3E1;" d="M57.5796,82.6183c-3.2413,0.3495-5.5833,3.2576-5.2338,6.4989
					c0.0628,0.5821,0.2093,1.1378,0.4263,1.6513l-11.1164,1.1986c-6.2544,0.6744-11.874-3.846-12.549-10.1062l-0.3483-3.2299
					c-0.6744-6.2544,3.8518-11.8746,10.1062-12.549l13.9069-1.4995c6.2544-0.6744,11.8746,3.8518,12.549,10.1062l0.3483,3.2299
					c0.2092,1.9402-0.079,3.8186-0.7741,5.51c-0.7213-0.2109-1.4918-0.2894-2.285-0.2039
					c-0.4337,0.0468-0.8511,0.1379-1.2458,0.2786C60.2792,82.8122,58.9549,82.47,57.5796,82.6183z M53.9695,82.5457
					c0.2853-0.0308,0.489-0.2836,0.4582-0.569l-0.1975-1.8318c-0.0308-0.2853-0.2843-0.4947-0.5696-0.4639l-14.0667,1.5167
					c-0.2853,0.0308-0.4884,0.2893-0.4576,0.5747l0.1975,1.8318c0.0308,0.2853,0.2836,0.489,0.569,0.4582L53.9695,82.5457z
					 M51.2798,75.8043l-0.2074-1.9231c-0.0283-0.2625-0.2622-0.4509-0.5247-0.4226L38.8493,74.72
					c-0.2568,0.0277-0.4452,0.2616-0.4169,0.5241l0.2074,1.9231c0.0283,0.2625,0.2622,0.4509,0.519,0.4232l11.6985-1.2614
					C51.1197,76.3007,51.3081,76.0668,51.2798,75.8043z"/>
				<path style="fill:#C3C3E1;" d="M64.8947,83.4287c-0.3553,0.8811-0.82,1.7106-1.379,2.4694
					c-0.488-0.9923-1.2352-1.8181-2.1517-2.3947c0.3947-0.1407,0.8121-0.2319,1.2458-0.2786
					C63.4029,83.1392,64.1734,83.2178,64.8947,83.4287z"/>
				<path style="fill:#C3C3E1;" d="M63.5157,85.8981c-1.456,1.9697-3.5399,3.4702-5.992,4.1791
					c-0.0274-0.1471-0.0497-0.3006-0.0663-0.4547c-0.2972-2.7563,1.383-5.2697,3.9066-6.1191
					C62.2805,84.08,63.0277,84.9058,63.5157,85.8981z"/>
				<path style="fill:#C3C3E1;" d="M61.364,83.5034c-2.5235,0.8494-4.2038,3.3628-3.9066,6.1191
					c0.0166,0.1541,0.0389,0.3075,0.0663,0.4547c-0.6262,0.1888-1.2877,0.3178-1.9611,0.3904l-2.7905,0.3009
					c-0.217-0.5135-0.3635-1.0692-0.4263-1.6513c-0.3495-3.2413,1.9925-6.1494,5.2338-6.4989
					C58.9549,82.47,60.2792,82.8122,61.364,83.5034z"/>
				<path style="fill:#C3C3E1;" d="M57.5237,90.0772c0.3216,1.6972,1.3622,3.1033,2.7616,3.928
					c-0.455,0.1703-0.939,0.286-1.4412,0.3401c-2.6593,0.2867-5.0921-1.2348-6.072-3.5768l2.7905-0.3009
					C56.236,90.395,56.8975,90.2659,57.5237,90.0772z"/>
				<path style="fill:#FFFFFF;" d="M54.2302,80.145l0.1975,1.8318c0.0308,0.2853-0.1729,0.5382-0.4582,0.569l-14.0667,1.5167
					c-0.2853,0.0308-0.5382-0.1729-0.569-0.4582l-0.1975-1.8318c-0.0308-0.2853,0.1723-0.5439,0.4576-0.5747l14.0667-1.5167
					C53.9459,79.6503,54.1994,79.8596,54.2302,80.145z"/>
				<path style="fill:#FFFFFF;" d="M51.0725,73.8812l0.2074,1.9231c0.0283,0.2625-0.1601,0.4964-0.4226,0.5247l-11.6985,1.2614
					c-0.2568,0.0277-0.4907-0.1607-0.519-0.4232l-0.2074-1.9231c-0.0283-0.2625,0.1601-0.4964,0.4169-0.5241l11.6985-1.2614
					C50.8102,73.4303,51.0441,73.6187,51.0725,73.8812z"/>
			</g>
		</g>
	</g>
	<g>
		<path style="fill:#EE8F94;" d="M94.6119,41.4607c-0.04,0.2002-0.0801,0.4102-0.1401,0.6104
			c-0.6997,2.3599-3.1699,3.71-5.52,3.0098c-2.3599-0.6899-3.71-3.1602-3.02-5.52c0.0601-0.2002,0.1304-0.3999,0.2202-0.5801
			L94.6119,41.4607z"/>
		<circle style="fill:#EE8F94;" cx="96.5381" cy="19.2675" r="2.761"/>
		<g>
			<path style="fill:#EE8F94;" d="M102.7418,41.0007c-0.1797-0.4502-0.5898-0.8398-1.2197-1.1797
				c-0.3003-0.1704-0.54-0.3301-0.73-0.5c-0.25-0.2104-0.4204-0.4502-0.5103-0.7104c-0.0801-0.27-0.0698-0.5898,0.04-0.98
				l1.8999-6.4399c0.2202-0.77,0.3403-1.5498,0.3701-2.3398c0.02-0.8003-0.0601-1.5801-0.23-2.3501
				c-0.1699-0.7598-0.4399-1.4902-0.79-2.1797c-0.3599-0.7002-0.79-1.3403-1.2998-1.9204c-1.0801-1.21-2.3901-2.04-3.9502-2.5
				c-1.5098-0.4497-3.04-0.4697-4.5801-0.0796c-1.5,0.3696-2.8198,1.0898-3.9399,2.1396c-1.1699,1.1104-1.9702,2.4102-2.4199,3.9199
				l-1.9902,6.77c-0.1196,0.4204-0.2998,0.71-0.52,0.8701c-0.3896,0.2798-0.9497,0.3901-1.6699,0.3301
				c-0.3398-0.0298-0.6299-0.02-0.8799,0.02c-0.3198,0.04-0.5898,0.1499-0.8101,0.3301c-0.2197,0.1699-0.3799,0.4497-0.5,0.8398
				c-0.1299,0.46-0.0801,0.8999,0.1699,1.3301c0.23,0.4399,0.5703,0.73,1.0303,0.8599l5.9399,1.75
				c0.9102-1.9897,3.1499-3.0601,5.2998-2.4302c2.1602,0.6304,3.4702,2.7603,3.1602,4.9102l5.9102,1.7402
				c0.21,0.0698,0.4399,0.0801,0.6797,0.0498c0.2402-0.0298,0.46-0.1001,0.6602-0.21c0.4399-0.2402,0.7197-0.5801,0.8501-1.0303
				C102.8419,41.5905,102.8419,41.2507,102.7418,41.0007z"/>
			<path style="fill:#E3646A;" d="M94.6119,41.4607l-8.46-2.48c0.9102-1.9897,3.1499-3.0601,5.2998-2.4302
				C93.6119,37.1809,94.922,39.3108,94.6119,41.4607z"/>
		</g>
	</g>
	<g>
		
			<rect x="201.3291" y="68.692" transform="matrix(0.1574 -0.9875 0.9875 0.1574 98.2159 287.3562)" style="fill:#E1DFDD;" width="32.3438" height="34.8616"/>
		
			<rect x="215.9731" y="56.1974" transform="matrix(0.1574 -0.9875 0.9875 0.1574 112.2332 278.7954)" style="fill:#EE8F94;" width="7.0397" height="34.8616"/>
		<path style="fill:#C8C6C4;" d="M228.9943,75.0717L228.9943,75.0717c-0.6555-0.1045-1.1022-0.7207-0.9977-1.3762l0.6911-4.335
			c0.1045-0.6555,0.7207-1.1022,1.3762-0.9977l0,0c0.6555,0.1045,1.1022,0.7207,0.9977,1.3762l-0.6911,4.335
			C230.266,74.7295,229.6498,75.1762,228.9943,75.0717z"/>
		<path style="fill:#C8C6C4;" d="M222.632,74.0574L222.632,74.0574c-0.6555-0.1045-1.1022-0.7207-0.9977-1.3762l0.6911-4.335
			c0.1045-0.6555,0.7207-1.1022,1.3762-0.9977l0,0c0.6555,0.1045,1.1022,0.7207,0.9977,1.3762l-0.6911,4.335
			C223.9037,73.7152,223.2875,74.1619,222.632,74.0574z"/>
		<path style="fill:#C8C6C4;" d="M216.2696,73.043L216.2696,73.043c-0.6555-0.1045-1.1022-0.7207-0.9977-1.3762l0.6911-4.335
			c0.1045-0.6555,0.7207-1.1022,1.3762-0.9977l0,0c0.6555,0.1045,1.1022,0.7207,0.9977,1.3762l-0.6911,4.335
			C217.5413,72.7008,216.9252,73.1475,216.2696,73.043z"/>
		<path style="fill:#C8C6C4;" d="M209.9073,72.0287L209.9073,72.0287c-0.6555-0.1045-1.1022-0.7207-0.9977-1.3762l0.6911-4.335
			c0.1045-0.6555,0.7207-1.1022,1.3762-0.9977l0,0c0.6555,0.1045,1.1022,0.7207,0.9977,1.3762l-0.6911,4.335
			C211.179,71.6865,210.5629,72.1332,209.9073,72.0287z"/>
		<path style="fill:#F3F2F1;" d="M236.1601,79.8529c0,0-2.9395,18.4378-8.7375,22.7421c0,0-5.0094-3.2877-11.4631-3.0283
			c-13.4809,0.5419-19.585-2.5749-23.4926-5.3087c0,0,7.0725-5.91,9.264-19.8941L236.1601,79.8529z"/>
		<path style="fill:#E3646A;" d="M230.722,71.8606l-0.3501,2.2104c-0.1099,0.6597-0.7197,1.1099-1.3799,1
			c-0.6499-0.1001-1.1001-0.7202-1-1.3804l0.3604-2.21L230.722,71.8606z"/>
		<path style="fill:#E3646A;" d="M224.3621,70.8405l-0.3501,2.2202c-0.1099,0.6499-0.7197,1.1001-1.3799,1
			c-0.6602-0.1099-1.1001-0.7202-1-1.3799l0.3501-2.2202L224.3621,70.8405z"/>
		<path style="fill:#E3646A;" d="M217.992,69.8308l-0.3501,2.21c-0.0996,0.6602-0.7197,1.1099-1.3696,1
			c-0.6602-0.1001-1.1001-0.7197-1-1.3701l0.3496-2.2197L217.992,69.8308z"/>
		<path style="fill:#E3646A;" d="M211.6322,68.8108l-0.3501,2.2202c-0.1001,0.6597-0.7197,1.0996-1.3701,1
			c-0.6597-0.1104-1.1099-0.7202-1-1.3804l0.3501-2.2197L211.6322,68.8108z"/>
	</g>
	<g>
		<path style="fill:#8B8CC4;" d="M203.1678,25.3498l0.6288,0.0562c0.0802,0.0036,0.1888,0.0367,0.3263,0.0993
			c0.4914,0.2195,0.8775,0.5451,1.1589,0.9764c0.2814,0.4315,0.4306,0.9111,0.447,1.4389c0.0083,0.4899,0.0013,0.9838-0.0208,1.4817
			c-0.1978,4.4437-1.7533,8.441-4.667,11.9918c-1.6208,1.9706-3.4844,3.6032-5.5913,4.8978
			c-2.1067,1.2948-4.4455,2.2331-7.0166,2.8152c-0.2333,0.0651-0.52,0.0898-0.8601,0.0747c-0.3999-0.0178-0.777-0.1027-1.131-0.255
			c-0.354-0.1521-0.6599-0.3705-0.9177-0.6551c-0.0186-0.029-0.0495-0.0704-0.0922-0.1241
			c-0.0426-0.0535-0.0728-0.1043-0.0909-0.1523l-0.2156-0.5603l-0.0413-0.0865l-0.1425-0.5147
			c-0.1219-0.41-0.2096-0.7458-0.2633-1.0072c-0.0534-0.2612-0.0793-0.5235-0.0776-0.7871
			c0.0297-0.6669,0.3108-1.2428,0.8434-1.7274l1.0339-0.9424c0.9081-0.8161,1.8606-1.3903,2.8573-1.7225
			c0.6611-0.2152,1.2865-0.3098,1.8764-0.2836c0.5602,0.0249,1.1005,0.1526,1.6213,0.3828l1.9149,0.876l4.8987-6.0512l-1.391-1.5021
			c-0.7269-0.7759-1.0642-1.7559-1.0115-2.9396c0.0238-0.5355,0.1309-1.0836,0.3212-1.6448c0.1903-0.561,0.4372-1.0936,0.74-1.5979
			l0.714-1.1825c0.4218-0.6965,1.0626-1.1339,1.9221-1.3123c0.4047-0.0855,0.917-0.1145,1.537-0.0869L203.1678,25.3498z"/>
	</g>
	<g>
		<path style="fill:#EE8F94;" d="M158.2545,41.6884h-38.3863l-2.7743-1.5705l2.7743-1.5705h38.3863
			c0.6664,0,1.2116,0.7067,1.2116,1.5705l0,0C159.4661,40.9817,158.9209,41.6884,158.2545,41.6884z"/>
		<circle style="fill:#594539;" cx="139.4149" cy="36.5486" r="12.3003"/>
		
			<radialGradient id="SVGID_1_" cx="140.0185" cy="162.017" r="20.4476" gradientTransform="matrix(1 0 0 1 0 -114)" gradientUnits="userSpaceOnUse">
			<stop  offset="0.3127" style="stop-color:#231F20"/>
			<stop  offset="0.8031" style="stop-color:#493931;stop-opacity:0.2865"/>
			<stop  offset="1" style="stop-color:#594539;stop-opacity:0"/>
		</radialGradient>
		<circle style="fill:url(#SVGID_1_);" cx="139.4149" cy="36.5486" r="12.3003"/>
		<rect x="131.1596" y="74.5166" style="fill:#E0BB95;" width="14.6598" height="36.4559"/>
		
			<radialGradient id="SVGID_2_" cx="138.7903" cy="195.5156" r="13.8922" gradientTransform="matrix(1 0 0 1 0 -114)" gradientUnits="userSpaceOnUse">
			<stop  offset="0.0013" style="stop-color:#9B643D"/>
			<stop  offset="0.4556" style="stop-color:#B98963;stop-opacity:0.545"/>
			<stop  offset="0.9997" style="stop-color:#E0BB95;stop-opacity:0"/>
		</radialGradient>
		<rect x="131.1596" y="74.5166" style="fill:url(#SVGID_2_);" width="14.6598" height="36.4559"/>
		<circle style="fill:#594539;" cx="139.4149" cy="63.1176" r="24.1355"/>
		<circle style="fill:#E0BB95;" cx="139.4149" cy="68.9754" r="18.5686"/>
		
			<linearGradient id="SVGID_3_" gradientUnits="userSpaceOnUse" x1="124.1859" y1="170.823" x2="137.8957" y2="187.7522" gradientTransform="matrix(1 0 0 1 0 -114)">
			<stop  offset="0.0013" style="stop-color:#9B643D"/>
			<stop  offset="0.4556" style="stop-color:#B98963;stop-opacity:0.545"/>
			<stop  offset="0.9997" style="stop-color:#E0BB95;stop-opacity:0"/>
		</linearGradient>
		<path style="fill:url(#SVGID_3_);" d="M139.412,52.7709v34.77c-10.25,0-18.5703-8.3101-18.5703-18.5703
			c0-6.96,3.8403-13.0298,9.5102-16.1997C130.3519,52.7709,139.412,52.7709,139.412,52.7709z"/>
		<g id="XMLID_1_">
			<g>
				<path style="fill:#EE8F94;" d="M160.5708,99.8046c0.987,0.6183,1.9442,1.2812,2.8716,1.9852
					c9.397,7.1474,15.468,18.4477,15.468,31.167V164H98.0692v-31.0433c0-12.0638,5.4602-22.8501,14.0415-30.031
					c1.3595-1.136,2.7934-2.1789,4.2981-3.1212h44.162V99.8046z"/>
				<path style="fill:#E0BB95;" d="M160.5708,99.8046h-44.1619c6.0226-3.7879,13.1514-5.9779,20.7941-5.9779h2.5737
					C147.4194,93.8267,154.5445,96.0167,160.5708,99.8046z"/>
				
					<radialGradient id="SVGID_4_" cx="93.6165" cy="229.59" r="25.9988" gradientTransform="matrix(1 0 0 1 0 -114)" gradientUnits="userSpaceOnUse">
					<stop  offset="0.0013" style="stop-color:#6E6FAC"/>
					<stop  offset="0.0956" style="stop-color:#8485B9"/>
					<stop  offset="0.2781" style="stop-color:#A9A9CD"/>
					<stop  offset="0.4614" style="stop-color:#C5C5DE"/>
					<stop  offset="0.6434" style="stop-color:#DADAEA"/>
					<stop  offset="0.8236" style="stop-color:#E6E6F1"/>
					<stop  offset="1" style="stop-color:#EAEAF3"/>
				</radialGradient>
				<path style="fill:url(#SVGID_4_);" d="M127.4224,164V95.0595c-15.36,3.9518-27.0737,16.9951-29.0552,33.0628
					c0,0-0.0037,0.0261-0.0112,0.0634c-0.1644,0.8331-2.8972,19.6064-9.3796,35.8144L127.4224,164L127.4224,164z"/>
				
					<radialGradient id="SVGID_5_" cx="146.6764" cy="266.538" r="31.2751" gradientTransform="matrix(1 0 0 1 0 -114)" gradientUnits="userSpaceOnUse">
					<stop  offset="0.0013" style="stop-color:#6E6FAC"/>
					<stop  offset="0.0956" style="stop-color:#8485B9"/>
					<stop  offset="0.2781" style="stop-color:#A9A9CD"/>
					<stop  offset="0.4614" style="stop-color:#C5C5DE"/>
					<stop  offset="0.6434" style="stop-color:#DADAEA"/>
					<stop  offset="0.8236" style="stop-color:#E6E6F1"/>
					<stop  offset="1" style="stop-color:#EAEAF3"/>
				</radialGradient>
				<path style="fill:url(#SVGID_5_);" d="M188.1468,164c-6.4824-16.208-9.2151-34.9813-9.3796-35.8144
					c-0.0074-0.0373-0.0112-0.0634-0.0112-0.0634c-1.9814-16.0676-13.6951-29.111-29.0551-33.0628V164H188.1468z"/>
			</g>
		</g>
		<g>
			<g>
				<g>
					<path style="fill:#E3646A;" d="M131.7705,79.0778c-4.0308,0-7.3101-3.2788-7.3101-7.3096s3.2793-7.3101,7.3101-7.3101
						c4.0308,0,7.3096,3.2793,7.3096,7.3101S135.8013,79.0778,131.7705,79.0778z M131.7705,66.258
						c-3.0381,0-5.5103,2.4722-5.5103,5.5103s2.4722,5.5098,5.5103,5.5098s5.5098-2.4717,5.5098-5.5098
						S134.8086,66.258,131.7705,66.258z"/>
				</g>
				<g>
					<path style="fill:#E3646A;" d="M146.8936,79.0778c-4.0312,0-7.3101-3.2788-7.3101-7.3096s3.2788-7.3101,7.3101-7.3101
						s7.3105,3.2793,7.3105,7.3101S150.9248,79.0778,146.8936,79.0778z M146.8936,66.258c-3.0381,0-5.5098,2.4722-5.5098,5.5103
						s2.4717,5.5098,5.5098,5.5098s5.5098-2.4717,5.5098-5.5098S149.9316,66.258,146.8936,66.258z"/>
				</g>
			</g>
			<g>
				<rect x="137.896" y="68.9753" style="fill:#E3646A;" width="2.8721" height="1.7998"/>
			</g>
		</g>
		<g>
			<path style="fill:#E0BB95;" d="M114.3602,77.3875c6.0595,0.1459,10.9699-2.3165,10.9813-2.3248
				c0.5203-0.3791,0.1606-0.8886-0.5372-0.9928c-0.6978-0.1042-2.9536-0.4413-2.9536-0.4413l3.4057-5.0811
				c0.4723-0.3641,0.1231-1.993-1.1947-1.2589c-1.3177,0.7341-2.2458,1.295-4.475,2.3535
				c-2.3152,1.0993-6.4429,5.7249-6.4429,5.7249L114.3602,77.3875z"/>
		</g>
		<path style="fill:#8B8CC4;" d="M150.396,124.736c-0.1178-0.5293-0.6423-0.8629-1.1716-0.7451l-27.9238,6.2149
			c-0.5293,0.1178-0.8629,0.6424-0.7451,1.1717L127.8162,164h31.3187L150.396,124.736z"/>
		<path style="fill:#E0BB95;" d="M148.2002,143.588c-7.3653-2.446-10.2872-1.4526-12.3851-0.7946
			c-0.0173,0.0054-0.0345,0.0111-0.0515,0.017c-0.7789,0.2695-0.5376,1.4423,0.2863,1.4167l3.1826-0.0989l-6.5694,2.4745
			c-0.7145,0.2691-0.8104,1.236-0.1655,1.6445c1.4359,0.9096,5.0019,1.8821,8.1276,1.4201
			c3.2463-0.4798,8.6927-3.5389,8.6927-3.5389L148.2002,143.588z"/>
		<path style="fill:#EAEAF3;" d="M159.6733,140.9019l-12.1134,2.4038v10.8741c0,0,47.0515,15.4733,46.1575-12.2366
			c-0.9261-28.7042-36.3792-44.0357-36.3792-44.0357l-3.3863,26.6877C165.8945,130.8042,168.9609,136.9183,159.6733,140.9019z"/>
		<path style="fill:#EAEAF3;" d="M127.4224,95.0726l-20.5091-0.0108c-1.9835-0.001-2.8065-2.5398-1.2009-3.7044l12.2629-8.8942
			l-4.3812-7.9467l-29.7987,9.4066c-15.1909,4.7953-16.9415,25.59-2.7662,32.8576l34.9675,17.9276L127.4224,95.0726z"/>
		<g style="opacity:0.5;">
			<g>
				<path style="fill:#9B643D;" d="M135.9569,78.7817c0.4263,0.4551,0.8008,0.7202,1.1929,0.9233
					c0.3931,0.1978,0.8091,0.3291,1.2505,0.4253c0.4414,0.0879,0.9028,0.1533,1.373,0.1567
					c0.4741-0.0044,0.9346-0.0249,1.5063-0.1909l0.0801-0.0229c0.2334-0.0679,0.4775,0.0664,0.5449,0.2998
					c0.0259,0.0884,0.0225,0.1787-0.0044,0.2598c-0.2539,0.7695-0.9585,1.3223-1.6865,1.5894
					c-0.7383,0.2754-1.5444,0.3296-2.312,0.1514c-0.7651-0.1709-1.5093-0.5747-2.0479-1.1958
					c-0.5439-0.6104-0.834-1.4565-0.6958-2.209c0.0444-0.2422,0.2769-0.4023,0.519-0.3579
					c0.0972,0.0176,0.1816,0.0659,0.2446,0.1333L135.9569,78.7817z"/>
			</g>
		</g>
		<ellipse style="fill:#33312D;" cx="131.7704" cy="72.0838" rx="1.4898" ry="2.421"/>
		<ellipse style="fill:#33312D;" cx="146.7285" cy="72.0838" rx="1.4898" ry="2.421"/>
		<path style="fill:#594539;" d="M149.8064,41.3341c-1.78-0.86-3.68-1.49-5.66-1.89c-1.53-0.3-3.11-0.46-4.73-0.46
			c-13.0699,0-23.71,10.38-24.12,23.35c3.69,3.05,8.43,4.88,13.59,4.88c7.46,0,14.02-3.81,17.84-9.59
			c3.59,5.42,9.59,9.11,16.47,9.54c0.23-1.32,0.35-2.67,0.35-4.05C163.5464,53.5041,157.9364,45.2041,149.8064,41.3341z"/>
	</g>
	<path style="fill:#E1DFDD;" d="M61.936,40.6744c-0.6864,2.0228-1.954,3.7712-3.6232,5.0361
		c-0.2927,0.2218-0.3101,0.6311-0.034,0.8732c1.6551,1.451,2.924,3.3264,3.639,5.4581c0.1819,0.5424,0.907,0.5424,1.0889-0.0001
		c0.7148-2.1317,1.9841-4.0071,3.6386-5.458c0.2761-0.2421,0.2586-0.6514-0.0341-0.8732c-1.6694-1.2649-2.937-3.0134-3.6238-5.0362
		C62.8157,40.1685,62.1077,40.1685,61.936,40.6744z"/>
	<path style="fill:#E1DFDD;" d="M221.7036,37.4235c-0.7722,2.2756-2.1982,4.2425-4.0761,5.6655
		c-0.3293,0.2495-0.3489,0.71-0.0382,0.9823c1.8619,1.6323,3.2894,3.7421,4.0938,6.1403c0.2047,0.6102,1.0204,0.6102,1.225-0.0001
		c0.8042-2.3981,2.232-4.5079,4.0934-6.1402c0.3106-0.2724,0.2909-0.7328-0.0383-0.9823c-1.878-1.423-3.3041-3.39-4.0767-5.6657
		C222.6932,36.8543,221.8967,36.8544,221.7036,37.4235z"/>
	<path style="fill:#F7C6C8;" d="M234.7554,48.4951c-0.3775,1.1126-1.0748,2.0744-1.993,2.7701
		c-0.161,0.122-0.1706,0.3471-0.0187,0.4803c0.9104,0.7981,1.6084,1.8297,2.0017,3.0023c0.1001,0.2984,0.4989,0.2983,0.599,0
		c0.3932-1.1726,1.0913-2.2041,2.0014-3.0022c0.1519-0.1332,0.1422-0.3583-0.0188-0.4803
		c-0.9182-0.6958-1.6155-1.6575-1.9933-2.7702C235.2392,48.2168,234.8498,48.2168,234.7554,48.4951z"/>
	<path style="fill:#F7C6C8;" d="M46.8062,34.4815c-0.497,1.4647-1.4149,2.7308-2.6236,3.6467
		c-0.2119,0.1606-0.2246,0.457-0.0246,0.6323c1.1984,1.0507,2.1173,2.4087,2.6351,3.9523c0.1317,0.3928,0.6568,0.3927,0.7885,0
		c0.5176-1.5436,1.4367-2.9016,2.6347-3.9522c0.1999-0.1753,0.1873-0.4717-0.0247-0.6323c-1.2088-0.9159-2.1267-2.182-2.624-3.6468
		C47.4432,34.1151,46.9306,34.1151,46.8062,34.4815z"/>
	<circle style="fill:#F7C6C8;" cx="163.4437" cy="16.244" r="3.0063"/>
</g>
</svg>
